<svg t="1691118234805" class="icon" viewBox="0 0 1024 1024" version="1.1" xmlns="http://www.w3.org/2000/svg" p-id="17050" width="96" height="96"><path d="M512.5 51c10.4 0 20.9 6 24.8 18l93.8 288.6c3.5 10.7 13.5 18 24.8 18h303.4c25.3 0 35.8 32.3 15.3 47.2L729.1 601.1c-9.1 6.6-13 18.4-9.5 29.1l93.8 288.6c5.9 18.3-8.6 34.2-24.9 34.2-5.1 0-10.4-1.6-15.2-5.1L527.8 769.7c-4.6-3.3-9.9-5-15.3-5s-10.8 1.7-15.3 5L251.7 948c-4.9 3.5-10.1 5.1-15.2 5.1-16.3 0-30.8-15.9-24.9-34.2l93.8-288.6c3.5-10.7-0.3-22.5-9.5-29.1L50.4 422.8C30 408 40.5 375.6 65.7 375.6h303.4c11.3 0 21.3-7.3 24.8-18L487.7 69c3.9-12 14.4-18 24.8-18m0-31.1c-11.7 0-22.9 3.4-32.4 9.9-10.4 7.1-18 17.3-22 29.6l-92.6 285.1H65.7c-12.9 0-25 4.1-35 11.8-9.1 7-15.8 16.6-19.4 27.7-3.6 11.1-3.8 22.8-0.6 33.9 3.5 12.1 10.9 22.5 21.4 30.1l242.5 176.2L182 909.3c-5.7 17.7-2.8 36.3 7.9 51.1 10.9 15 28.3 23.9 46.6 23.9 12 0 23.6-3.8 33.5-11L512.5 797 755 973.2c9.9 7.2 21.5 11 33.5 11 18.3 0 35.7-8.9 46.6-23.9 10.8-14.8 13.7-33.5 7.9-51.1l-92.6-285.1L992.9 448c10.4-7.6 17.8-18 21.4-30.1 3.2-11.1 3-22.8-0.6-33.9-3.6-11.1-10.3-20.7-19.4-27.7-10-7.7-22.1-11.8-35-11.8H659.5L566.9 59.4c-4-12.3-11.6-22.5-22-29.6-9.5-6.5-20.7-9.9-32.4-9.9z" fill="" p-id="17051"></path></svg>