<svg t="1690789621410" class="icon" viewBox="0 0 1024 1024" version="1.1" xmlns="http://www.w3.org/2000/svg" p-id="3620" width="96" height="96"><path d="M512 44.521739c193.001739 0 400.695652 59.436522 400.695652 189.929739v555.097044C912.695652 919.997217 705.001739 979.478261 512 979.478261s-400.695652-59.525565-400.695652-189.929739V234.451478C111.304348 103.958261 319.087304 44.521739 512 44.521739zM168.559304 789.548522c0 72.570435 153.778087 131.472696 343.440696 131.472695s343.440696-58.902261 343.440696-131.472695v-109.211826c-59.12487 62.285913-201.728 94.564174-343.440696 94.564174-141.712696 0-284.315826-32.322783-343.440696-94.564174v109.211826z m0-175.326609h0.133566l-0.133566 0.979478c0 72.125217 153.778087 130.537739 343.440696 130.537739s343.440696-58.457043 343.440696-130.537739l-0.133566-0.934956h0.133566v-109.211826c-59.12487 62.241391-201.728 94.564174-343.440696 94.564174-141.712696 0-284.315826-32.322783-343.440696-94.564174v109.211826z m0-175.282087h0.133566l-0.133566 0.934957c0 72.125217 153.778087 130.537739 343.440696 130.537739s343.440696-58.412522 343.440696-130.537739l-0.133566-0.934957h0.133566V338.543304C780.466087 396.911304 642.982957 424.381217 512 424.381217s-268.466087-27.469913-343.440696-85.748869v100.307478zM512 365.879652c189.662609 0 343.440696-58.902261 343.440696-131.517217 0-72.659478-153.778087-131.472696-343.440696-131.472696S168.559304 161.702957 168.559304 234.406957c0 72.614957 153.778087 131.472696 343.440696 131.472695z m-257.602783 409.110261a28.93913 28.93913 0 0 0-28.672 29.250783c0 16.205913 12.733217 29.250783 28.672 29.250782a28.93913 28.93913 0 0 0 28.627479-29.339826 28.850087 28.850087 0 0 0-28.627479-29.161739z m0-175.37113a28.93913 28.93913 0 0 0-28.672 29.250782c0 16.205913 12.733217 29.250783 28.672 29.250783a28.93913 28.93913 0 0 0 28.627479-29.250783 28.93913 28.93913 0 0 0-28.627479-29.250782z m0-175.237566a28.93913 28.93913 0 0 0-28.672 29.250783c0 16.205913 12.733217 29.250783 28.672 29.250783a28.93913 28.93913 0 0 0 28.627479-29.339826 28.850087 28.850087 0 0 0-28.627479-29.16174z" p-id="3621"></path></svg>