<svg t="1690789668628" class="icon" viewBox="0 0 1024 1024" version="1.1" xmlns="http://www.w3.org/2000/svg" p-id="4802" width="96" height="96"><path d="M798 191.9H232.5V486H798V191.9z m-58.5 88.3l-165 116.7c-7 4.9-16.3 4.9-23.3-0.1l-109.7-79.2c-7.3-5.3-17.5-3-21.9 4.9l-67.1 120.9c-2.6 4.7-8.6 6.5-13.4 4l-37.6-19.7c-5.2-2.7-6.9-9.3-3.8-14.2l111.1-175c4.6-7.3 14.5-9.2 21.5-4.1l128.9 94.1c7.2 5.2 16.9 5.1 24-0.3l120.4-92.4c4.2-3.2 10.3-2.6 13.7 1.5l24 28.3c3.9 4.4 3 11.2-1.8 14.6z m-507 551.2H798v-59.7H232.5v59.7z m334.7-290.7H232.5v59.7h334.7v-59.7z m0 115.5H232.5v59.7h334.7v-59.7zM97 64v896h830V64H97z m761 835.4H166V124.6h692v774.8z" p-id="4803"></path></svg>