<svg t="1700558025257" class="icon" viewBox="0 0 1024 1024" version="1.1" xmlns="http://www.w3.org/2000/svg" p-id="5626" width="96" height="96"><path d="M952 120H728.288a16 16 0 1 0 0 32H952c17.648 0 32 14.352 32 32v208c0 17.648-14.352 32-32 32a16 16 0 1 0 0 32c35.296 0 64-28.704 64-64v-208c0-35.296-28.704-64-64-64z" fill="#353B44" p-id="5627"></path><path d="M952 440v32h-48v-48c0-5.44-0.464-10.88-1.6-16h49.6v32z" fill="#434A54" p-id="5628"></path><path d="M680 808l48-16 48 16 32-32h64c53.12 0 96 43.04 96 96v80c0 17.76-14.24 32-32 32h-416c-17.744 0-32-14.24-32-32v-80c0-52.96 42.896-96 96-96h64l32 32z" fill="#5D9CEC" p-id="5629"></path><path d="M872 776h-64c53.12 0 96 43.04 96 96v80c0 17.76-14.24 32-32 32h64c17.76 0 32-14.24 32-32v-80c0-52.96-42.88-96-96-96z" fill="#4A89DC" p-id="5630"></path><path d="M728 744c28.816 0 56-6.88 80-19.2v51.2l-32 32-48-16-48 16-32-32v-51.2c24 12.32 51.2 19.2 80 19.2z" fill="#F5F7FA" p-id="5631"></path><path d="M592.176 680a175.184 175.184 0 0 1-40.176-112v-64l48-48s59.36 32 128 32c68.48 0 128-32 128-32l48 48v64.16c0 68.336-39.024 127.536-96 156.64a174.4 174.4 0 0 1-80 19.2c-28.8 0-56-6.88-80-19.2a178.864 178.864 0 0 1-55.824-44.8z" fill="#EAC6BB" p-id="5632"></path><path d="M856 456s-5.856 3.136-16 7.472v104.688c0 68.336-39.024 127.536-96 156.64-14.864 7.648-31.056 12.896-48 16 10.416 1.904 21.04 3.2 32 3.2 28.816 0 56-6.88 80-19.2 56.976-29.104 96-88.32 96-156.64V504l-48-48z" fill="#D3B1A9" p-id="5633"></path><path d="M904 472v32l-48-48s-59.52 32-128 32c-68.64 0-128-32-128-32l-48 48v-80a144 144 0 0 1 144-144h128v64a80 80 0 0 1 80 80v48z" fill="#965353" p-id="5634"></path><path d="M902.4 408a80 80 0 0 0-78.4-64v-64h-64v96c38.72 0 71.04 11.52 78.4 48 1.12 5.12 1.6 10.56 1.6 16v23.472c10.144-4.336 16-7.472 16-7.472l48 48v-80c0-5.44-0.464-10.88-1.6-16z" fill="#844747" p-id="5635"></path><path d="M8.336 104H56v576H8.336z" fill="#AAB2BD" p-id="5636"></path><path d="M728.336 136v144H696a144 144 0 0 0-144 144v144c0 42.56 15.04 81.616 40.176 112H56v-576h672.336v32z" fill="#656D78" p-id="5637"></path><path d="M728 104h-63.664v179.616A143.456 143.456 0 0 1 696 280h32.336v-176H728z" fill="#434A54" p-id="5638"></path><path d="M728 104H8v-32a32 32 0 0 1 32-32h656a32 32 0 0 1 32 32v32z" fill="#CCD1D9" p-id="5639"></path><path d="M696 40h-64a32 32 0 0 1 32 32v32h64v-32a32 32 0 0 0-32-32z" fill="#AAB2BD" p-id="5640"></path><path d="M56.48 88c-8.848 0-16.08-7.152-16.08-16s7.072-16 15.904-16h0.176a16 16 0 1 1 0 32z" fill="#ED5565" p-id="5641"></path><path d="M104.48 88c-8.848 0-16.08-7.152-16.08-16s7.072-16 15.904-16h0.176a16 16 0 1 1 0 32z" fill="#FFCE54" p-id="5642"></path><path d="M152.48 88c-8.848 0-16.08-7.152-16.08-16s7.072-16 15.904-16h0.176a16 16 0 1 1 0 32z" fill="#8CC152" p-id="5643"></path><path d="M392 184h-272a16 16 0 1 1 0-32h272a16 16 0 1 1 0 32z" fill="#FFCE54" p-id="5644"></path><path d="M328 248h-176a16 16 0 1 1 0-32h176a16 16 0 1 1 0 32z" fill="#AC92EC" p-id="5645"></path><path d="M312 568.192h-160a16 16 0 1 1 0-32h160a16 16 0 1 1 0 32z" fill="#A0D468" p-id="5646"></path><path d="M424 248h-32a16 16 0 1 1 0-32h32a16 16 0 1 1 0 32z" fill="#AC92EC" p-id="5647"></path><path d="M216 632h-96a16 16 0 1 1 0-32h96a16 16 0 1 1 0 32z" fill="#FFCE54" p-id="5648"></path><path d="M248 312h-64a16 16 0 1 1 0-32h64a16 16 0 1 1 0 32zM472 312h-160a16 16 0 1 1 0-32h160a16 16 0 1 1 0 32z" fill="#5D9CEC" p-id="5649"></path><path d="M456 376h-272a16 16 0 1 1 0-32h272a16 16 0 1 1 0 32z" fill="#A0D468" p-id="5650"></path><path d="M360 440h-176a16 16 0 1 1 0-32h176a16 16 0 1 1 0 32z" fill="#ED5565" p-id="5651"></path><path d="M440 504h-160a16 16 0 1 1 0-32h160a16 16 0 1 1 0 32zM216 504h-32a16 16 0 1 1 0-32h32a16 16 0 1 1 0 32z" fill="#AC92EC" p-id="5652"></path></svg>